HIERARCHY
ROOT root
{
	OFFSET	0.000000	0.000000	0.000000
	CHANNELS 6 Xposition Yposition Zposition Zrotation Yrotation Xrotation
	JOINT lhipjoint
	{
		OFFSET	0.000000	0.000000	0.000000
		CHANNELS 3 Zrotation Yrotation Xrotation
		JOINT lfemur
		{
			OFFSET	1.645494	-1.708786	0.845660
			CHANNELS 3 Zrotation Yrotation Xrotation
			JOINT ltibia
			{
				OFFSET	2.249633	-6.180820	0.000000
				CHANNELS 3 Zrotation Yrotation Xrotation
				JOINT lfoot
				{
					OFFSET	2.717752	-7.466968	0.000000
					CHANNELS 3 Zrotation Yrotation Xrotation
					JOINT ltoes
					{
						OFFSET	0.187679	-0.515643	2.247368
						CHANNELS 3 Zrotation Yrotation Xrotation
						End Site
						{
							OFFSET	0.000000	-0.000000	1.159350
						}
					}
				}
			}
		}
	}
	JOINT rhipjoint
	{
		OFFSET	0.000000	0.000000	0.000000
		CHANNELS 3 Zrotation Yrotation Xrotation
		JOINT rfemur
		{
			OFFSET	-1.588298	-1.708789	0.845662
			CHANNELS 3 Zrotation Yrotation Xrotation
			JOINT rtibia
			{
				OFFSET	-2.250064	-6.182003	0.000000
				CHANNELS 3 Zrotation Yrotation Xrotation
				JOINT rfoot
				{
					OFFSET	-2.728293	-7.495929	0.000000
					CHANNELS 3 Zrotation Yrotation Xrotation
					JOINT rtoes
					{
						OFFSET	-0.215414	-0.591846	2.106425
						CHANNELS 3 Zrotation Yrotation Xrotation
						End Site
						{
							OFFSET	-0.000000	-0.000000	1.098380
						}
					}
				}
			}
		}
	}
	JOINT lowerback
	{
		OFFSET	0.000000	0.000000	0.000000
		CHANNELS 3 Zrotation Yrotation Xrotation
		JOINT upperback
		{
			OFFSET	0.031419	2.104964	-0.110379
			CHANNELS 3 Zrotation Yrotation Xrotation
			JOINT thorax
			{
				OFFSET	-0.018626	2.108971	-0.069557
				CHANNELS 3 Zrotation Yrotation Xrotation
				JOINT lowerneck
				{
					OFFSET	-0.034945	2.110023	-0.018114
					CHANNELS 3 Zrotation Yrotation Xrotation
					JOINT upperneck
					{
						OFFSET	-0.022675	1.732376	0.004511
						CHANNELS 3 Zrotation Yrotation Xrotation
						JOINT head
						{
							OFFSET	-0.058084	1.547243	-0.617485
							CHANNELS 3 Zrotation Yrotation Xrotation
							End Site
							{
								OFFSET	-0.013955	1.714682	-0.210818
							}
						}
					}
				}
				JOINT lclavicle
				{
					OFFSET	-0.034945	2.110023	-0.018114
					CHANNELS 3 Zrotation Yrotation Xrotation
					JOINT lhumerus
					{
						OFFSET	3.448981	0.502979	0.219205
						CHANNELS 3 Zrotation Yrotation Xrotation
						JOINT lradius
						{
							OFFSET	5.419170	-0.000000	-0.000000
							CHANNELS 3 Zrotation Yrotation Xrotation
							JOINT lwrist
							{
								OFFSET	2.443730	-0.000000	0.000000
								CHANNELS 3 Zrotation Yrotation Xrotation
								JOINT lhand
								{
									OFFSET	1.221860	-0.000000	0.000000
									CHANNELS 3 Zrotation Yrotation Xrotation
									JOINT lfingers
									{
										OFFSET	0.727502	-0.000000	0.000000
										CHANNELS 3 Zrotation Yrotation Xrotation
										End Site
										{
											OFFSET	0.586531	-0.000000	0.000000
										}
									}
								}
								JOINT lthumb
								{
									OFFSET	1.221860	-0.000000	0.000000
									CHANNELS 3 Zrotation Yrotation Xrotation
									End Site
									{
										OFFSET	0.595487	-0.000000	0.595487
									}
								}
							}
						}
					}
				}
				JOINT rclavicle
				{
					OFFSET	-0.034945	2.110023	-0.018114
					CHANNELS 3 Zrotation Yrotation Xrotation
					JOINT rhumerus
					{
						OFFSET	-3.230153	0.558301	0.310511
						CHANNELS 3 Zrotation Yrotation Xrotation
						JOINT rradius
						{
							OFFSET	-5.589760	-0.000102	0.000137
							CHANNELS 3 Zrotation Yrotation Xrotation
							JOINT rwrist
							{
								OFFSET	-2.480600	-0.000000	0.000000
								CHANNELS 3 Zrotation Yrotation Xrotation
								JOINT rhand
								{
									OFFSET	-1.240300	-0.000000	0.000000
									CHANNELS 3 Zrotation Yrotation Xrotation
									JOINT rfingers
									{
										OFFSET	-0.816009	-0.000000	0.000000
										CHANNELS 3 Zrotation Yrotation Xrotation
										End Site
										{
											OFFSET	-0.657887	-0.000000	0.000000
										}
									}
								}
								JOINT rthumb
								{
									OFFSET	-1.240300	-0.000000	0.000000
									CHANNELS 3 Zrotation Yrotation Xrotation
									End Site
									{
										OFFSET	-0.667932	-0.000000	0.667932
									}
								}
							}
						}
					}
				}
			}
		}
	}
}
MOTION
Frames:	5
Frame Time:	0.008333
	-0.232508	16.314899	-0.666350	177.794006	-6.159590	-159.261993	0.000000	0.000000	0.000000	-30.543688	-11.728759	-36.626465	5.010092	13.395150	40.866268	3.293639	7.664938	-37.547249	0.011951	0.705900	1.939916	0.000000	0.000000	0.000000	24.499363	-11.245117	-29.894440	-9.548455	-17.147991	57.968227	-1.253984	-28.167158	26.640373	-0.965950	-6.257575	17.533615	-1.309760	0.347588	-15.068301	0.247096	-0.106618	-5.733590	0.967298	-0.358902	2.376940	-1.145280	1.232230	-12.717901	1.766510	-3.409190	39.181404	-0.059335	-2.925580	16.168503	-1.145280	0.000000	0.000000	-91.204605	19.072914	0.934922	18.122395	-28.313601	-4.607148	0.000000	0.000000	8.262991	17.603916	18.546387	5.762915	-7.125019	0.000000	0.000000	-10.332355	49.091721	-1.052798	-1.145280	0.000000	0.000000	83.767059	-13.426386	0.507984	-6.951258	11.838991	-0.721611	0.000000	0.000000	11.698092	-30.402760	21.425823	-12.097822	7.125019	0.000000	0.000000	-1.057092	-5.518671	-0.950697
	-0.233818	16.316099	-0.666470	178.319000	-6.134941	-159.330017	0.000000	0.000000	0.000000	-29.951555	-11.641737	-36.734959	5.019482	13.405700	40.906784	3.323211	7.559832	-37.641666	0.016382	0.826364	2.271172	0.000000	0.000000	0.000000	25.034403	-11.087826	-29.769524	-9.527102	-17.135206	57.895771	-1.151693	-28.673311	26.399540	-1.132041	-6.757539	18.999020	-0.829590	0.422865	-15.052499	0.433756	-0.083887	-5.738901	0.895028	-0.351333	2.365250	-1.212420	1.287850	-12.684898	1.754190	-3.260150	39.087799	-0.023066	-2.868320	16.107403	-1.212420	-0.000000	0.000000	-91.470955	19.147556	1.304347	17.969652	-28.118286	-4.534929	0.000000	0.000000	8.889593	17.196764	19.091919	5.780320	-7.125019	0.000000	0.000000	-10.899596	49.582756	-1.244779	-1.212420	-0.000000	0.000000	83.986084	-13.350023	-0.627634	-6.876333	11.715537	-0.706319	-0.000000	-0.000003	12.134293	-30.078703	20.822618	-11.633821	7.125019	0.000000	0.000000	-0.940500	-6.256902	-0.832508
	-0.234709	16.316700	-0.671048	178.397003	-6.051999	-159.402008	0.000000	0.000000	0.000000	-29.895872	-11.570478	-36.694870	5.016465	13.402314	40.893772	3.272523	7.998084	-37.611607	0.006392	0.516258	1.418588	0.000000	0.000000	0.000000	25.074986	-11.160310	-29.687008	-9.527953	-17.135717	57.898659	-1.113160	-28.888884	26.325075	-1.183488	-6.904099	19.431570	-0.795533	0.449073	-15.004403	0.474466	-0.058899	-5.762690	0.922691	-0.339870	2.314260	-1.144680	1.354860	-12.616800	1.659210	-3.126080	39.051701	-0.051603	-2.815040	16.065002	-1.144680	-0.000000	-0.000000	-91.732201	19.095591	1.174601	17.526627	-27.546778	-4.328083	0.000000	0.000000	10.129893	17.181177	19.071495	5.768886	-7.125019	0.000000	0.000000	-10.907604	49.559692	-1.239474	-1.144680	-0.000000	-0.000000	84.229240	-13.409329	-1.377745	-6.828581	11.636772	-0.696656	0.000000	0.000000	12.143692	-30.033138	20.107857	-11.241144	7.125019	0.000000	0.000000	-1.010746	-7.060134	-0.878982
	-0.231378	16.316799	-0.667180	178.401001	-5.806770	-159.332001	0.000000	0.000000	0.000000	-29.892599	-11.631350	-36.809841	5.017225	13.403166	40.897049	3.270251	8.352115	-37.783760	0.004069	0.411862	1.131673	0.000000	0.000000	0.000000	25.050722	-10.970645	-29.784506	-9.544361	-17.145540	57.954327	-1.164846	-28.712740	26.485733	-1.081047	-6.608584	18.560823	-0.917861	0.523704	-14.992201	0.475390	0.054573	-5.771000	1.011650	-0.283126	2.295480	-1.151000	1.376630	-12.779401	1.713590	-3.058170	39.002804	-0.013162	-2.763940	16.079100	-1.151000	-0.000000	0.000000	-91.903481	18.830074	1.141723	16.922628	-26.755661	-4.052444	0.000000	0.000000	11.338499	17.515820	18.382479	5.683817	-7.125019	0.000000	0.000000	-10.364268	48.912045	-1.009874	-1.151000	-0.000000	0.000000	84.498993	-13.417047	-1.687719	-6.924847	11.795493	-0.716206	0.000000	0.000003	11.606296	-29.612488	19.078291	-10.524233	7.125019	0.000000	0.000000	-0.879270	-8.288339	-0.743427
	-0.229359	16.318399	-0.665234	178.266998	-5.451970	-159.218002	0.000000	0.000000	0.000000	-30.059790	-11.671944	-36.890289	4.996390	13.379726	40.807087	3.285093	8.457820	-37.912560	0.013571	0.752155	2.067097	0.000000	0.000000	0.000000	24.808090	-10.639470	-29.948696	-9.578453	-17.165886	58.069908	-1.300663	-28.356480	26.968607	-0.933512	-6.154565	17.233543	-1.197730	0.569528	-15.103702	0.466769	0.164124	-5.686601	1.179110	-0.223965	2.438200	-1.221270	1.374720	-13.129200	1.718010	-2.951420	38.938496	0.022206	-2.699980	16.129398	-1.221270	-0.000000	0.000000	-92.175430	18.668852	1.388727	16.734531	-26.506483	-3.968131	0.000000	0.000000	11.937899	17.708256	17.709042	5.547486	-7.125019	0.000000	0.000000	-9.974304	48.255043	-0.808406	-1.221270	-0.000000	0.000000	84.666306	-13.059959	-2.684401	-6.787879	11.569614	-0.688468	-0.000000	-0.000003	11.575792	-29.243288	18.714869	-10.183996	7.125019	0.000000	0.000000	-0.688070	-8.762144	-0.575270
